<svg xmlns="http://www.w3.org/2000/svg" viewBox="0 0 200 65"><defs><style>.a{fill:#fff;}.b{fill:#333;}</style></defs><g transform="translate(-1.44 -1.444)"><g transform="translate(1.44 1.444)"><g transform="translate(0 0)"><path class="a" d="M13.716,65.872c-.517,0-1.021-.007-1.534-.018a21.479,21.479,0,0,1-3.17-.277,9.967,9.967,0,0,1-2.81-.931,9.17,9.17,0,0,1-2.369-1.727A9.041,9.041,0,0,1,2.1,60.545a9.736,9.736,0,0,1-.921-2.816A21.132,21.132,0,0,1,.9,54.543c-.011-.358-.025-1.552-.025-1.552V13.737s.015-1.175.025-1.52a21.058,21.058,0,0,1,.281-3.181A9.793,9.793,0,0,1,2.1,6.212,9.13,9.13,0,0,1,3.822,3.836,9.44,9.44,0,0,1,6.2,2.1,9.864,9.864,0,0,1,9,1.175,21.308,21.308,0,0,1,12.186.9l1.53-.021H188.021L189.57.9a20.968,20.968,0,0,1,3.152.276,10.059,10.059,0,0,1,2.834.931,9.5,9.5,0,0,1,4.1,4.112,9.806,9.806,0,0,1,.908,2.8,22.118,22.118,0,0,1,.295,3.207c0,.481,0,1,0,1.513.013.637.013,1.244.013,1.855V51.156c0,.617,0,1.22-.013,1.827,0,.553,0,1.059-.007,1.58a21.677,21.677,0,0,1-.29,3.15,9.765,9.765,0,0,1-.916,2.838,9.312,9.312,0,0,1-1.723,2.355,9.181,9.181,0,0,1-2.373,1.737,9.93,9.93,0,0,1-2.829.934,21.234,21.234,0,0,1-3.17.277c-.5.012-1.017.018-1.522.018l-1.839,0Z" transform="translate(-0.873 -0.875)"/></g><g transform="translate(15.432 13.331)"><path class="b" d="M35.069,24.725a8.413,8.413,0,0,1,4-7.055A8.588,8.588,0,0,0,32.3,14c-2.848-.3-5.609,1.707-7.061,1.707-1.479,0-3.714-1.678-6.12-1.628a9.013,9.013,0,0,0-7.586,4.635c-3.28,5.69-.833,14.052,2.309,18.651,1.572,2.252,3.409,4.768,5.814,4.679,2.353-.1,3.231-1.5,6.071-1.5,2.813,0,3.638,1.5,6.091,1.446,2.524-.041,4.115-2.262,5.632-4.536A18.642,18.642,0,0,0,40.02,32.2a8.126,8.126,0,0,1-4.951-7.475Z" transform="translate(-9.972 -5.047)"/><path class="b" d="M24.3,14.652a8.29,8.29,0,0,0,1.89-5.931,8.4,8.4,0,0,0-5.44,2.82,7.888,7.888,0,0,0-1.94,5.712,6.947,6.947,0,0,0,5.49-2.6Z" transform="translate(-3.833 -8.72)"/><g transform="translate(41.479 15.549)"><path class="b" d="M47.784,33.476H39.756l-1.928,5.7h-3.4l7.6-21.1h3.533l7.6,21.1H49.71Zm-7.2-2.632h6.364l-3.137-9.256h-.088Z" transform="translate(-34.427 -17.726)"/><path class="b" d="M61.1,29.2c0,4.781-2.554,7.852-6.408,7.852a5.2,5.2,0,0,1-4.832-2.692h-.073v7.62H46.631V21.51h3.051v2.559h.058a5.445,5.445,0,0,1,4.89-2.72C58.527,21.349,61.1,24.435,61.1,29.2Zm-3.24,0c0-3.115-1.607-5.162-4.058-5.162-2.408,0-4.028,2.091-4.028,5.162,0,3.1,1.62,5.176,4.028,5.176,2.451,0,4.058-2.033,4.058-5.176Z" transform="translate(-25.932 -15.441)"/><path class="b" d="M71.061,29.2c0,4.781-2.554,7.852-6.408,7.852a5.2,5.2,0,0,1-4.832-2.692h-.073v7.62H56.6V21.51h3.051v2.559h.058a5.445,5.445,0,0,1,4.89-2.72C68.492,21.349,71.061,24.435,71.061,29.2Zm-3.24,0c0-3.115-1.607-5.162-4.058-5.162-2.408,0-4.028,2.091-4.028,5.162,0,3.1,1.62,5.176,4.028,5.176,2.451,0,4.058-2.033,4.058-5.176Z" transform="translate(-18.996 -15.441)"/><path class="b" d="M73.035,33.445c.234,2.093,2.263,3.466,5.035,3.466,2.657,0,4.568-1.374,4.568-3.261,0-1.638-1.153-2.619-3.882-3.291l-2.73-.659c-3.868-.936-5.663-2.748-5.663-5.689,0-3.641,3.167-6.142,7.664-6.142,4.451,0,7.5,2.5,7.6,6.142H82.449c-.19-2.106-1.928-3.377-4.467-3.377s-4.277,1.286-4.277,3.158c0,1.492,1.11,2.37,3.824,3.042l2.321.571c4.321,1.024,6.117,2.763,6.117,5.849,0,3.948-3.139,6.42-8.131,6.42-4.671,0-7.825-2.414-8.028-6.231Z" transform="translate(-9.799 -17.871)"/><path class="b" d="M85.562,19.3v3.641h2.92v2.5h-2.92v8.481c0,1.318.585,1.932,1.868,1.932a9.832,9.832,0,0,0,1.037-.073v2.486a8.64,8.64,0,0,1-1.751.146c-3.109,0-4.321-1.17-4.321-4.154V25.441H80.163v-2.5H82.4V19.3Z" transform="translate(-2.591 -16.872)"/><path class="b" d="M86.065,29.213c0-4.841,2.846-7.882,7.283-7.882s7.285,3.042,7.285,7.882S97.815,37.1,93.348,37.1,86.065,34.067,86.065,29.213Zm11.356,0c0-3.321-1.519-5.28-4.073-5.28s-4.071,1.975-4.071,5.28c0,3.334,1.517,5.279,4.071,5.279s4.073-1.945,4.073-5.279Z" transform="translate(1.517 -15.452)"/><path class="b" d="M96.186,21.51h3.006v2.619h.073a3.664,3.664,0,0,1,3.694-2.78,4.853,4.853,0,0,1,1.08.118V24.42a4.4,4.4,0,0,0-1.416-.191,3.18,3.18,0,0,0-3.285,3.54v9.125H96.186Z" transform="translate(8.562 -15.441)"/><path class="b" d="M115.069,32.386c-.424,2.793-3.139,4.709-6.612,4.709-4.467,0-7.24-3-7.24-7.809s2.788-7.955,7.107-7.955c4.248,0,6.92,2.924,6.92,7.589V30H104.4v.191a4,4,0,0,0,4.131,4.358,3.474,3.474,0,0,0,3.546-2.164Zm-10.655-4.592h7.677a3.7,3.7,0,0,0-3.766-3.9,3.891,3.891,0,0,0-3.91,3.9Z" transform="translate(12.064 -15.452)"/></g></g></g><g transform="translate(59.914 14.52)"><path class="b" d="M37.706,13.13h1.353a1.7,1.7,0,0,0,1.908-1.616c0-.935-.7-1.539-1.893-1.539a1.8,1.8,0,0,0-2.042,1.588H35.546A3.174,3.174,0,0,1,39.122,8.6c1.993,0,3.4,1.118,3.4,2.726a2.354,2.354,0,0,1-1.839,2.319v.119a2.36,2.36,0,0,1,2.251,2.452,3.382,3.382,0,0,1-3.78,3.014,3.365,3.365,0,0,1-3.8-3h1.509c.091.97.981,1.6,2.292,1.6s2.168-.7,2.168-1.693-.807-1.624-2.216-1.624h-1.4Z" transform="translate(-35.349 -8.57)"/><path class="b" d="M40.829,15.743c0-1.377,1.025-2.171,2.841-2.284l2.069-.119v-.66c0-.808-.532-1.264-1.564-1.264-.841,0-1.423.309-1.592.85H41.124c.154-1.314,1.39-2.157,3.122-2.157,1.915,0,2.995.955,2.995,2.571v5.228H45.788V16.832h-.119a2.568,2.568,0,0,1-2.294,1.2,2.309,2.309,0,0,1-2.546-2.29Zm4.909-.654v-.64l-1.865.12c-1.052.071-1.529.429-1.529,1.1s.6,1.089,1.416,1.089a1.8,1.8,0,0,0,1.978-1.673Z" transform="translate(-31.534 -7.495)"/><path class="b" d="M47.586,11.466v6.381H46.079V10.195h5.029v1.271Z" transform="translate(-27.879 -7.434)"/><path class="b" d="M57.357,14.07c0,2.431-1.227,3.955-3.155,3.955a2.488,2.488,0,0,1-2.35-1.285h-.119v3.7H50.225v-10.2h1.451v1.265h.113a2.652,2.652,0,0,1,2.4-1.391C56.13,10.12,57.357,11.638,57.357,14.07Zm-1.55,0c0-1.616-.764-2.593-2.041-2.593s-2.062,1-2.062,2.6.793,2.593,2.056,2.593c1.284,0,2.047-.977,2.047-2.6Z" transform="translate(-24.994 -7.487)"/><path class="b" d="M55.933,20.587v-1.3a3.556,3.556,0,0,0,.492.028,1.307,1.307,0,0,0,1.381-1.068l.113-.373-2.764-7.68H56.8l1.915,6.078h.119l1.908-6.078h1.6l-2.847,7.968c-.653,1.862-1.375,2.459-2.932,2.459C56.431,20.622,56.074,20.608,55.933,20.587Z" transform="translate(-21.562 -7.434)"/><path class="b" d="M60.081,15.746h1.5c.147.675.778,1.026,1.661,1.026,1,0,1.62-.443,1.62-1.132,0-.738-.553-1.089-1.62-1.089H62.1V13.378h1.123c.911,0,1.375-.351,1.375-.991,0-.562-.449-.991-1.375-.991-.843,0-1.459.358-1.557.962H60.214a2.677,2.677,0,0,1,3.01-2.241c1.815,0,2.854.822,2.854,2.115A1.572,1.572,0,0,1,64.871,13.8v.119a1.715,1.715,0,0,1,1.494,1.722c0,1.455-1.236,2.417-3.122,2.417C61.575,18.058,60.22,17.292,60.081,15.746Z" transform="translate(-18.133 -7.506)"/><path class="b" d="M65.066,17.847V10.195H66.56v5.263h.119l3.52-5.263h1.494v7.652H70.2V12.555h-.113L66.56,17.847Z" transform="translate(-14.663 -7.434)"/><path class="b" d="M76.419,11.466H74.014v6.381H72.505V11.466H70.1V10.195h6.319Z" transform="translate(-11.159 -7.434)"/><path class="b" d="M81.433,15.841a3.1,3.1,0,0,1-3.311,2.214,3.473,3.473,0,0,1-3.528-3.949,3.527,3.527,0,0,1,3.521-4c2.125,0,3.409,1.455,3.409,3.857v.527H76.131v.085a2.019,2.019,0,0,0,2.034,2.192,1.829,1.829,0,0,0,1.815-.928Zm-5.3-2.466h3.856a1.844,1.844,0,0,0-1.878-1.982,1.953,1.953,0,0,0-1.978,1.982Z" transform="translate(-8.053 -7.495)"/><path class="b" d="M82.38,10.195h3.444c1.494,0,2.37.758,2.37,1.946a1.643,1.643,0,0,1-1.29,1.616v.119a1.745,1.745,0,0,1,1.633,1.764c0,1.335-1,2.206-2.678,2.206H82.38Zm1.494,1.159v1.981h1.494c.911,0,1.347-.351,1.347-1,0-.6-.379-.983-1.179-.983Zm0,3.092v2.242h1.787c.891,0,1.368-.394,1.368-1.118,0-.766-.54-1.124-1.557-1.124Z" transform="translate(-2.61 -7.434)"/></g></g></svg>