<svg xmlns="http://www.w3.org/2000/svg" viewBox="0 0 200 65"><defs><style>.a{fill:#fff;}</style></defs><path class="a" d="M-5463.241,36.444l-172.477,0c-.478,0-.965-.006-1.534-.018a21.5,21.5,0,0,1-3.17-.278,9.965,9.965,0,0,1-2.81-.93,9.179,9.179,0,0,1-2.37-1.728,9.077,9.077,0,0,1-1.731-2.373,9.755,9.755,0,0,1-.92-2.815,21.08,21.08,0,0,1-.282-3.187c-.012-.363-.025-1.543-.025-1.551V-15.694c0-.006.016-1.175.025-1.52a21,21,0,0,1,.281-3.181,9.753,9.753,0,0,1,.921-2.824,9.1,9.1,0,0,1,1.722-2.376,9.408,9.408,0,0,1,2.377-1.738,9.877,9.877,0,0,1,2.8-.924,21.43,21.43,0,0,1,3.182-.278l1.53-.021h174.306l1.548.021a21.076,21.076,0,0,1,3.153.276,10.034,10.034,0,0,1,2.833.931,9.431,9.431,0,0,1,4.1,4.112,9.767,9.767,0,0,1,.909,2.8,22.18,22.18,0,0,1,.293,3.207c.005.482.005,1.006.005,1.513.013.638.013,1.257.013,1.856V21.725c0,.627,0,1.219-.013,1.827,0,.545,0,1.059-.007,1.579a21.823,21.823,0,0,1-.289,3.15,9.784,9.784,0,0,1-.916,2.838,9.341,9.341,0,0,1-1.722,2.355,9.151,9.151,0,0,1-2.375,1.737,9.9,9.9,0,0,1-2.828.934,21.307,21.307,0,0,1-3.171.278c-.534.012-1.046.018-1.521.018Zm-90.808-30.05V26.868h3.151V19.247h.074a5.2,5.2,0,0,0,4.559,2.7c.091,0,.183,0,.274-.007a5.807,5.807,0,0,0,4.648-2.133,8.9,8.9,0,0,0,1.759-5.719,8.85,8.85,0,0,0-1.772-5.715,5.882,5.882,0,0,0-4.7-2.14l-.177,0a5.462,5.462,0,0,0-4.712,2.723H-5551V6.393Zm-16.9,0V26.868h3.151V19.247h.072a5.206,5.206,0,0,0,4.559,2.7c.091,0,.183,0,.274-.007a5.808,5.808,0,0,0,4.649-2.133,8.9,8.9,0,0,0,1.759-5.719,8.848,8.848,0,0,0-1.772-5.715,5.88,5.88,0,0,0-4.694-2.14l-.177,0a5.461,5.461,0,0,0-4.712,2.723h-.058V6.393Zm39.31,9.505h0a5.972,5.972,0,0,0,2.338,4.547,9.205,9.205,0,0,0,5.689,1.685,9.5,9.5,0,0,0,5.938-1.73,5.756,5.756,0,0,0,2.193-4.691,4.843,4.843,0,0,0-1.437-3.7,10.018,10.018,0,0,0-4.68-2.151l-2.32-.571c-2.717-.671-3.825-1.552-3.825-3.041a2.757,2.757,0,0,1,1.187-2.281,5.164,5.164,0,0,1,3.09-.877c2.567,0,4.279,1.294,4.467,3.377h3.181a5.758,5.758,0,0,0-2.171-4.436,8.5,8.5,0,0,0-5.433-1.705c-4.512,0-7.664,2.525-7.664,6.141,0,2.946,1.8,4.754,5.663,5.689l2.73.659c2.721.67,3.881,1.654,3.881,3.29,0,1.889-1.921,3.26-4.567,3.26-2.781,0-4.8-1.393-5.035-3.466ZM-5471.26,6.2c-4.317,0-7.106,3.122-7.106,7.954s2.774,7.81,7.24,7.81a7.619,7.619,0,0,0,4.449-1.307,5.057,5.057,0,0,0,2.163-3.4h-2.993a3.463,3.463,0,0,1-3.223,2.18c-.107,0-.215-.005-.322-.015l-.144,0a4.016,4.016,0,0,1-2.9-1.249,4.013,4.013,0,0,1-1.084-3.113v-.19h10.846V13.793a8.049,8.049,0,0,0-1.868-5.544A6.615,6.615,0,0,0-5471.26,6.2Zm-25.522,0a7.008,7.008,0,0,0-5.307,2.125,8.278,8.278,0,0,0-1.977,5.756,8.3,8.3,0,0,0,1.966,5.761,7.015,7.015,0,0,0,5.317,2.121,7.013,7.013,0,0,0,5.317-2.121,8.293,8.293,0,0,0,1.967-5.761,8.287,8.287,0,0,0-1.972-5.756A7.009,7.009,0,0,0-5496.783,6.2Zm-17.295.189v2.5h2.233v8.819c0,2.989,1.212,4.154,4.322,4.154h.157a8.733,8.733,0,0,0,1.593-.149V19.234a10.2,10.2,0,0,1-1.038.074c-1.274,0-1.868-.614-1.868-1.932V8.894h2.92v-2.5h-2.92V2.753h-3.167v3.64Zm-109.8-12.584h-.1a9.021,9.021,0,0,0-4.4,1.316,9.041,9.041,0,0,0-3.183,3.319c-1.879,3.26-1.719,7.093-1.254,9.734a23.6,23.6,0,0,0,3.563,8.917c1.38,1.976,3.27,4.681,5.689,4.681l.122,0a7.119,7.119,0,0,0,2.665-.708,7.922,7.922,0,0,1,3.408-.795,7.469,7.469,0,0,1,3.236.768,6.388,6.388,0,0,0,2.72.68l.135,0c2.438-.04,3.994-2.078,5.633-4.536a18.678,18.678,0,0,0,2.576-5.254,8.117,8.117,0,0,1-4.953-7.475,8.44,8.44,0,0,1,1.093-4.044,8.417,8.417,0,0,1,2.9-3.013,8.629,8.629,0,0,0-6.769-3.666,5.674,5.674,0,0,0-.591-.03,11.856,11.856,0,0,0-4.258,1.083,7.133,7.133,0,0,1-2.212.656,6.945,6.945,0,0,1-2.3-.669A10.135,10.135,0,0,0-5623.878-6.19ZM-5486.9,6.393V21.777h3.151V12.652a3.181,3.181,0,0,1,.83-2.526,3.186,3.186,0,0,1,2.328-1.016l.126,0,.128,0a4.4,4.4,0,0,1,1.288.193V6.349a4.947,4.947,0,0,0-1.08-.118l-.142,0a3.655,3.655,0,0,0-3.551,2.783h-.072V6.393Zm-99.421,9.681h8.028l1.926,5.7h3.459l-7.6-21.1h-3.534l-7.6,21.1h3.4l1.928-5.7Zm30.6-19.7v1.3c.143.022.5.035.624.035,1.567,0,2.28-.6,2.933-2.46l2.847-7.968h-1.6l-1.91,6.079h-.118l-1.915-6.079h-1.642l2.764,7.681-.112.373a1.306,1.306,0,0,1-1.284,1.071q-.049,0-.1,0h-.055a3.631,3.631,0,0,1-.437-.027Zm-9.141-9.094v10.2h1.508v-3.7h.119a2.488,2.488,0,0,0,2.179,1.292c.057,0,.114,0,.171-.006a2.839,2.839,0,0,0,2.3-1.066,4.575,4.575,0,0,0,.855-2.889c0-2.436-1.215-3.949-3.17-3.949h-.064a2.648,2.648,0,0,0-2.334,1.391h-.113V-12.72Zm-25.23,4.9h0a3.39,3.39,0,0,0,1.266,2.308,3.371,3.371,0,0,0,2.083.723,3.267,3.267,0,0,0,.454-.031,3.377,3.377,0,0,0,.419.026,3.386,3.386,0,0,0,2.1-.737,3.416,3.416,0,0,0,1.257-2.3,2.365,2.365,0,0,0-2.251-2.452v-.119a2.364,2.364,0,0,0,1.839-2.319c0-1.605-1.4-2.726-3.4-2.726a3.187,3.187,0,0,0-.409-.026,3.179,3.179,0,0,0-2.023.73,3.194,3.194,0,0,0-1.143,2.262h1.486a1.813,1.813,0,0,1,.686-1.226,1.805,1.805,0,0,1,1.1-.379,1.807,1.807,0,0,1,.251.018c1.168,0,1.894.589,1.894,1.538a1.712,1.712,0,0,1-.6,1.228,1.708,1.708,0,0,1-1.1.4,1.707,1.707,0,0,1-.208-.013h-1.353v1.375h1.4c1.388,0,2.217.607,2.217,1.625s-.872,1.693-2.169,1.693-2.2-.626-2.292-1.595Zm70.069,2.9h0a3.014,3.014,0,0,0,.336.018,3.123,3.123,0,0,0,2.976-2.233h-1.453a1.828,1.828,0,0,1-1.6.941,1.855,1.855,0,0,1-.218-.013H-5520a2.01,2.01,0,0,1-1.475-.645,2.024,2.024,0,0,1-.534-1.548v-.084h5.394V-9.01a4.2,4.2,0,0,0-.909-2.83,3.218,3.218,0,0,0-2.5-1.028h-.029a3.525,3.525,0,0,0-2.643,1.194,3.544,3.544,0,0,0-.851,2.8,3.475,3.475,0,0,0,.852,2.793,3.469,3.469,0,0,0,2.585,1.158Zm-28.121-2.319h0c.129,1.426,1.341,2.312,3.163,2.312a3.67,3.67,0,0,0,2.269-.663,2.146,2.146,0,0,0,.854-1.754,1.718,1.718,0,0,0-1.494-1.722v-.118a1.583,1.583,0,0,0,1.206-1.568c0-1.324-1.067-2.115-2.855-2.115a2.7,2.7,0,0,0-.369-.025,2.671,2.671,0,0,0-1.729.639,2.684,2.684,0,0,0-.912,1.628h1.453c.095-.593.691-.963,1.556-.963.848,0,1.375.38,1.375.991,0,.648-.476.991-1.375.991h-1.123v1.174h1.143c1.075,0,1.62.366,1.62,1.089,0,.7-.621,1.133-1.62,1.133-.913,0-1.519-.375-1.662-1.028Zm-29.306-4.321c1.008,0,1.563.449,1.563,1.264v.661l-2.069.12c-1.831.113-2.84.924-2.84,2.284a2.315,2.315,0,0,0,.766,1.711,2.307,2.307,0,0,0,1.541.591,2.251,2.251,0,0,0,.238-.013l.119,0a2.554,2.554,0,0,0,2.176-1.2h.119v1.076h1.452V-10.3c0-1.634-1.091-2.572-2.994-2.572-1.744,0-2.969.847-3.122,2.158h1.459C-5578.868-11.25-5578.287-11.561-5577.444-11.561Zm67.127-1.16v7.652h3.479c1.652,0,2.679-.845,2.679-2.206a1.743,1.743,0,0,0-1.633-1.764v-.12a1.649,1.649,0,0,0,1.289-1.616c0-1.2-.908-1.946-2.369-1.946Zm-20.827,0v1.272h2.4v6.381h1.508v-6.381h2.406V-12.72Zm-3.519,2.362h.113v5.29h1.494V-12.72h-1.494l-3.52,5.264h-.119V-12.72h-1.494v7.652h1.494l3.525-5.29Zm-37.223-2.362v7.652h1.507v-6.381h3.521V-12.72Zm-38.886-2.5a8.385,8.385,0,0,0-5.441,2.82,7.84,7.84,0,0,0-1.939,5.713h.071a6.916,6.916,0,0,0,5.418-2.6,8.248,8.248,0,0,0,1.891-5.931Zm113.989,34.589a3.631,3.631,0,0,1-2.994-1.389,6.334,6.334,0,0,1-1.078-3.889c0-3.307,1.522-5.281,4.071-5.281s4.073,1.974,4.073,5.281a6.336,6.336,0,0,1-1.078,3.889A3.635,3.635,0,0,1-5496.783,19.364Zm-50.1-.1c-2.41,0-4.029-2.08-4.029-5.176s1.619-5.163,4.029-5.163a3.621,3.621,0,0,1,2.948,1.413,6.011,6.011,0,0,1,1.109,3.75,6.041,6.041,0,0,1-1.1,3.767A3.622,3.622,0,0,1-5546.881,19.262Zm-16.9,0c-2.409,0-4.028-2.08-4.028-5.176s1.619-5.163,4.028-5.163a3.624,3.624,0,0,1,2.949,1.413,6.011,6.011,0,0,1,1.109,3.75C-5559.724,17.231-5561.317,19.262-5563.783,19.262Zm-15.343-5.821h-6.364l3.14-9.256h.086l3.137,9.254Zm111.632-.774h-7.676a3.922,3.922,0,0,1,1.144-2.769,3.861,3.861,0,0,1,2.744-1.137h.1a3.711,3.711,0,0,1,2.659,1.129,3.712,3.712,0,0,1,1.031,2.776ZM-5577.68-6.2c-.059,0-.119,0-.178-.009-.86,0-1.416-.428-1.416-1.09,0-.682.485-1.033,1.528-1.1l1.865-.119v.639a1.819,1.819,0,0,1-.635,1.257A1.808,1.808,0,0,1-5577.68-6.2Zm70.645-.024h-1.786V-8.469h1.6c1.033,0,1.557.378,1.557,1.124C-5505.667-6.624-5506.153-6.228-5507.035-6.228ZM-5561.32-6.3c-1.268,0-2.056-.994-2.056-2.593s.791-2.6,2.063-2.6,2.042.969,2.042,2.593S-5560.038-6.3-5561.32-6.3Zm53.993-3.282h-1.494v-1.982h1.66c.761,0,1.18.349,1.18.982C-5505.981-9.915-5506.434-9.579-5507.327-9.579Zm-10.825-.02h-3.855a1.965,1.965,0,0,1,.57-1.409,1.961,1.961,0,0,1,1.379-.573h.067a1.855,1.855,0,0,1,1.338.575,1.855,1.855,0,0,1,.5,1.408Z" transform="translate(5648.56 28.556)"/></svg>