<svg xmlns="http://www.w3.org/2000/svg" xmlns:xlink="http://www.w3.org/1999/xlink" viewBox="0 0 149.208 54"><defs><style>.a{fill:url(#a);}.b{fill:url(#d);}.c{fill:url(#g);}.d{fill:url(#j);}.e{fill:url(#m);}.f{fill:url(#p);}.g{fill:url(#s);}.h{filter:url(#t);}.i{filter:url(#q);}.j{filter:url(#n);}.k{filter:url(#k);}.l{filter:url(#h);}.m{filter:url(#e);}.n{filter:url(#b);}</style><linearGradient id="a" x1="-1.072" y1="-0.345" x2="5.766" y2="2.96" gradientUnits="objectBoundingBox"><stop offset="0" stop-color="#0d6ca8"/><stop offset="0.24" stop-color="#0d6ea9"/><stop offset="0.33" stop-color="#0d75aa"/><stop offset="0.39" stop-color="#0e80ae"/><stop offset="0.44" stop-color="#0f91b3"/><stop offset="0.48" stop-color="#10a7b9"/><stop offset="0.5" stop-color="#11b3bc"/><stop offset="0.52" stop-color="#11b9be"/><stop offset="0.6" stop-color="#12c4c1"/><stop offset="0.71" stop-color="#12cbc3"/><stop offset="1" stop-color="#12cdc4"/></linearGradient><filter id="b" x="0" y="2.005" width="38.983" height="43.647" filterUnits="userSpaceOnUse"><feOffset input="SourceAlpha"/><feGaussianBlur stdDeviation="2.5" result="c"/><feFlood flood-opacity="0.102"/><feComposite operator="in" in2="c"/><feComposite in="SourceGraphic"/></filter><linearGradient id="d" x1="-2.34" y1="-0.937" x2="5.986" y2="3.338" xlink:href="#a"/><filter id="e" x="22.327" y="8.979" width="34.584" height="37.021" filterUnits="userSpaceOnUse"><feOffset input="SourceAlpha"/><feGaussianBlur stdDeviation="2.5" result="f"/><feFlood flood-opacity="0.102"/><feComposite operator="in" in2="f"/><feComposite in="SourceGraphic"/></filter><linearGradient id="g" x1="-3.118" y1="-0.958" x2="4.956" y2="2.182" xlink:href="#a"/><filter id="h" x="43.881" y="8.961" width="35.234" height="45.039" filterUnits="userSpaceOnUse"><feOffset input="SourceAlpha"/><feGaussianBlur stdDeviation="2.5" result="i"/><feFlood flood-opacity="0.102"/><feComposite operator="in" in2="i"/><feComposite in="SourceGraphic"/></filter><linearGradient id="j" x1="-4.268" y1="-1.198" x2="4.377" y2="2.1" xlink:href="#a"/><filter id="k" x="68.159" y="2.005" width="33.932" height="43.659" filterUnits="userSpaceOnUse"><feOffset input="SourceAlpha"/><feGaussianBlur stdDeviation="2.5" result="l"/><feFlood flood-opacity="0.102"/><feComposite operator="in" in2="l"/><feComposite in="SourceGraphic"/></filter><linearGradient id="m" x1="-13.294" y1="-1.431" x2="9.128" y2="1.74" xlink:href="#a"/><filter id="n" x="89.646" y="0.606" width="22.364" height="45.057" filterUnits="userSpaceOnUse"><feOffset input="SourceAlpha"/><feGaussianBlur stdDeviation="2.5" result="o"/><feFlood flood-opacity="0.102"/><feComposite operator="in" in2="o"/><feComposite in="SourceGraphic"/></filter><linearGradient id="p" x1="-7.138" y1="-1.598" x2="4.236" y2="1.495" xlink:href="#a"/><filter id="q" x="99.156" y="0" width="29.438" height="45.652" filterUnits="userSpaceOnUse"><feOffset input="SourceAlpha"/><feGaussianBlur stdDeviation="2.5" result="r"/><feFlood flood-opacity="0.102"/><feComposite operator="in" in2="r"/><feComposite in="SourceGraphic"/></filter><linearGradient id="s" x1="-5.763" y1="-2.784" x2="2.389" y2="1.479" xlink:href="#a"/><filter id="t" x="114.241" y="8.957" width="34.967" height="37.045" filterUnits="userSpaceOnUse"><feOffset input="SourceAlpha"/><feGaussianBlur stdDeviation="2.5" result="u"/><feFlood flood-opacity="0.102"/><feComposite operator="in" in2="u"/><feComposite in="SourceGraphic"/></filter></defs><g transform="translate(-814.5 -325.5)"><g class="n" transform="matrix(1, 0, 0, 1, 814.5, 325.5)"><path class="a" d="M36.543,29.4h-8.6V52.717h-6.9V29.4H12.56V24.07H36.543Z" transform="translate(-5.06 -14.57)"/></g><g class="m" transform="matrix(1, 0, 0, 1, 814.5, 325.5)"><path class="b" d="M43.938,51.5a7.486,7.486,0,0,1-.63-1.914A6.165,6.165,0,0,1,38.2,51.84a7.558,7.558,0,0,1-5.112-1.817A5.79,5.79,0,0,1,31,45.5a5.96,5.96,0,0,1,2.556-5.233,13.021,13.021,0,0,1,7.413-1.756h2.047V37.389q0-2.943-2.544-2.943a2.071,2.071,0,0,0-2.362,2.338H31.486a5.947,5.947,0,0,1,2.628-5.015,11.047,11.047,0,0,1,6.7-1.926,9.69,9.69,0,0,1,6.432,1.987,6.9,6.9,0,0,1,2.423,5.451V46.7a9.69,9.69,0,0,0,.908,4.482v.339Zm-4.155-4.324a3.706,3.706,0,0,0,2.059-.533,3.343,3.343,0,0,0,1.211-1.211V42.04H41.092q-3.464,0-3.464,3.113a1.9,1.9,0,0,0,.606,1.466,2.2,2.2,0,0,0,1.55.557Z" transform="translate(-1.17 -13.35)"/></g><g class="l" transform="matrix(1, 0, 0, 1, 814.5, 325.5)"><path class="c" d="M48.8,40.7a14.378,14.378,0,0,1,1.066-5.705,8.54,8.54,0,0,1,3.052-3.828,8.043,8.043,0,0,1,4.6-1.345,6.4,6.4,0,0,1,5.2,2.241l.242-1.853h6.056V50.7a8.976,8.976,0,0,1-1.308,4.845,8.394,8.394,0,0,1-3.791,3.186,13.93,13.93,0,0,1-5.741,1.114,12.016,12.016,0,0,1-4.53-.884,8.188,8.188,0,0,1-3.392-2.277l2.774-3.9a6.056,6.056,0,0,0,4.845,2.18q4.494.024,4.494-4.506V49.8a6.226,6.226,0,0,1-4.845,2.047,7.692,7.692,0,0,1-6.3-2.98A12.343,12.343,0,0,1,48.8,40.881Zm6.65.412a7.571,7.571,0,0,0,.981,4.143,3.1,3.1,0,0,0,2.75,1.526,3.525,3.525,0,0,0,3.186-1.429V36.4a3.44,3.44,0,0,0-3.137-1.514,3.125,3.125,0,0,0-2.774,1.587,8.624,8.624,0,0,0-1.005,4.651Z" transform="translate(2.59 -13.35)"/></g><g class="k" transform="matrix(1, 0, 0, 1, 814.5, 325.5)"><path class="d" d="M75.734,47.411H87.762v5.318H68.83V24.07h6.9Z" transform="translate(6.83 -14.57)"/></g><g class="j" transform="matrix(1, 0, 0, 1, 814.5, 325.5)"><path class="e" d="M86.57,26.167a2.992,2.992,0,0,1,1.017-2.338,4.324,4.324,0,0,1,5.318,0,3.174,3.174,0,0,1,0,4.676,4.324,4.324,0,0,1-5.318,0A2.992,2.992,0,0,1,86.57,26.167Zm7.05,26.806H86.958V31.679h6.65Z" transform="translate(10.58 -14.81)"/></g><g class="i" transform="matrix(1, 0, 0, 1, 814.5, 325.5)"><path class="f" d="M97.545,53.067V36.387H94.42v-4.6h3.125v-1.7a7.353,7.353,0,0,1,2.144-5.645,8.479,8.479,0,0,1,6.056-2.011,13.179,13.179,0,0,1,3.113.412V27.69a6.057,6.057,0,0,0-1.635-.182q-3,0-3.016,2.592v1.635h4.155v4.6h-4.155V53.067Z" transform="translate(12.24 -14.92)"/></g><g class="h" transform="matrix(1, 0, 0, 1, 814.5, 325.5)"><path class="g" d="M117.844,51.843a10.9,10.9,0,0,1-7.934-2.919,10.09,10.09,0,0,1-3.028-7.607v-.5a13.082,13.082,0,0,1,1.211-5.766,8.854,8.854,0,0,1,3.537-3.864,10.659,10.659,0,0,1,5.511-1.369,9.218,9.218,0,0,1,7.086,2.786,10.9,10.9,0,0,1,2.592,7.764v2.58H113.628a4.845,4.845,0,0,0,1.55,2.834,4.615,4.615,0,0,0,3.113,1.017,5.96,5.96,0,0,0,4.918-2.229l3.028,3.634a8.479,8.479,0,0,1-3.513,2.725A11.871,11.871,0,0,1,117.844,51.843Zm-.751-16.958q-2.919,0-3.464,3.852h6.723v-.509a3.283,3.283,0,0,0-.812-2.423,3.21,3.21,0,0,0-2.447-.921Z" transform="translate(14.87 -13.35)"/></g></g></svg>