<svg xmlns="http://www.w3.org/2000/svg" viewBox="0 0 40.014 40.014"><defs><style>.a{fill:none;}.b{fill:#333;}.c{fill:#fff;}</style></defs><g transform="translate(12.508 -51.793)"><rect class="a" width="40.014" height="40.014" transform="translate(-12.508 51.793)"/><path class="b" d="M26.622,66.2a6.815,6.815,0,0,0-1.067-2.876,3.561,3.561,0,0,0-2.69-1.206c-3.757-.278-9.415-.325-9.415-.325h0s-5.658.046-9.415.325a3.748,3.748,0,0,0-2.69,1.206A6.2,6.2,0,0,0,.278,66.2,46.4,46.4,0,0,0,0,70.93v2.18a44.909,44.909,0,0,0,.278,4.684A6.815,6.815,0,0,0,1.345,80.67a4.456,4.456,0,0,0,2.968,1.252c2.133.232,9.137.278,9.137.278s5.658,0,9.415-.325a3.748,3.748,0,0,0,2.69-1.206,6.815,6.815,0,0,0,1.067-2.876A46.1,46.1,0,0,0,26.9,73.11V70.93a46.4,46.4,0,0,0-.278-4.731" transform="translate(-6)"/><path class="c" d="M194.207,166.841v10.065l8.812-4.916Z" transform="translate(-190.003 -99.529)"/></g></svg>