<svg xmlns="http://www.w3.org/2000/svg" viewBox="0 0 40.014 40.014"><defs><style>.a{fill:none;}.b{fill:#333;}</style></defs><g transform="translate(-227 -318)"><rect class="a" width="40.014" height="40.014" transform="translate(227 318)"/><path class="b" d="M29.335,123.392a46.4,46.4,0,0,1,3.338,3.358,9.759,9.759,0,0,1,1.2,1.724c.46.891.043,1.871-.755,1.924l-4.966,0a3.834,3.834,0,0,1-3.161-1.285c-.688-.7-1.324-1.446-1.985-2.169a4.705,4.705,0,0,0-.894-.794,1.038,1.038,0,0,0-1.654.4,5.218,5.218,0,0,0-.523,2.317c-.053,1.169-.407,1.477-1.581,1.53a12.7,12.7,0,0,1-7.105-1.528,15.7,15.7,0,0,1-4.781-4.476A60.266,60.266,0,0,1,.172,113.176c-.4-.884-.107-1.359.869-1.376,1.62-.031,3.24-.029,4.861,0a1.428,1.428,0,0,1,1.349,1.009,30.136,30.136,0,0,0,3.295,6.106,5.208,5.208,0,0,0,1.245,1.368.756.756,0,0,0,1.285-.378,4.237,4.237,0,0,0,.286-1.28,19.071,19.071,0,0,0-.08-4.488,1.871,1.871,0,0,0-1.593-1.712c-.475-.09-.4-.267-.174-.537a1.785,1.785,0,0,1,1.523-.758h5.612c.883.174,1.08.571,1.2,1.46l0,6.234c-.01.344.172,1.365.792,1.593.5.162.823-.235,1.121-.549a19.33,19.33,0,0,0,3.159-4.857c.38-.767.707-1.564,1.024-2.361a1.2,1.2,0,0,1,1.269-.869l5.4,0a2.847,2.847,0,0,1,.477.029c.91.155,1.16.547.878,1.435a13.486,13.486,0,0,1-2.147,3.724c-.9,1.246-1.864,2.45-2.757,3.7-.821,1.145-.756,1.722.264,2.717Z" transform="translate(229.964 217.247)"/></g></svg>